<svg width="40" height="40" viewBox="0 0 40 40" fill="none" xmlns="http://www.w3.org/2000/svg">
<path d="M8.19137 15.18C8.25876 14.3039 8.29245 13.8659 8.58 13.5996C8.86754 13.3333 9.30685 13.3333 10.1855 13.3333H29.8147C30.6933 13.3333 31.1326 13.3333 31.4202 13.5996C31.7077 13.8659 31.7414 14.3039 31.8088 15.18L32.6708 26.3864C32.981 30.4192 33.1362 32.4356 31.9488 33.7178C30.7614 35 28.7391 35 24.6944 35H15.3058C11.2611 35 9.23873 35 8.05137 33.7178C6.86401 32.4356 7.01912 30.4192 7.32933 26.3864L8.19137 15.18Z" fill="#2A4157" fill-opacity="0.24"/>
<path d="M14.1667 13.3333L14.1667 10.8333C14.1667 7.61168 16.7784 5.00001 20.0001 5.00001V5.00001C23.2217 5.00001 25.8334 7.61168 25.8334 10.8333L25.8334 13.3333" stroke="#222222"/>
<path d="M13.6667 19.1667C13.6667 19.4428 13.8906 19.6667 14.1667 19.6667C14.4429 19.6667 14.6667 19.4428 14.6667 19.1667H13.6667ZM14.6667 19.1667V16.6667H13.6667V19.1667H14.6667Z" fill="#222222"/>
<path d="M25.3333 19.1667C25.3333 19.4428 25.5571 19.6667 25.8333 19.6667C26.1094 19.6667 26.3333 19.4428 26.3333 19.1667H25.3333ZM26.3333 19.1667V16.6667H25.3333V19.1667H26.3333Z" fill="#222222"/>
</svg>
