<svg width="510" height="415" viewBox="0 0 510 415" fill="none" xmlns="http://www.w3.org/2000/svg">
<path d="M380.649 293.659L340.927 270.341L309.726 316.773C327.954 331.985 358.577 343.048 374.401 339.67C406.875 332.737 472.498 240.534 481.604 233.514C512.602 209.617 522.678 200.548 483.89 219.117C446.909 236.821 466.496 219.117 457.436 219.117C446.551 219.877 450.158 229.538 454.198 236.46L380.649 293.659Z" fill="url(#paint0_linear_93_3665)"/>
<path d="M155.267 258.334C166.474 250.552 210.756 236.534 230.204 230.497L250.779 232.742C263.743 235.956 291.549 241.435 304.34 246.621C317.131 251.806 340.343 268.343 361.998 282.133L356.885 299.841C352.293 315.744 340.15 328.356 324.432 333.547C320.387 359.269 316.899 401.086 317.475 414.05L166.989 413.933L160.1 350.285L129.111 353.605L102.934 333.547C135.711 276.853 141.259 268.062 155.267 258.334Z" fill="url(#paint1_linear_93_3665)"/>
<path d="M112.216 404.588C64.5352 398.543 95.5463 350.218 104 334.259C114.225 342.866 126.851 348.117 140.164 349.3L156.595 350.759L149.867 366.281L222.506 383.287L232.697 411.558C225.438 410.322 171.509 412.107 112.216 404.588Z" fill="url(#paint2_linear_93_3665)"/>
<path d="M235.275 103.623C237.622 99.3796 244.352 93.4385 252.499 103.623H235.275Z" fill="#30235B"/>
<ellipse cx="239.187" cy="249.006" rx="25.9725" ry="18.5082" fill="#CF0606"/>
<path d="M217.906 248.011L221.536 211.862H256.881L260.941 248.011C259.522 252.268 252.822 260.904 240.416 260.904C224.603 260.904 218.919 252.268 217.906 248.011Z" fill="url(#paint3_linear_93_3665)"/>
<mask id="mask0_93_3665" style="mask-type:alpha" maskUnits="userSpaceOnUse" x="217" y="211" width="44" height="50">
<path d="M217.906 248.011L221.536 211.862H256.881L260.949 248.084C259.53 252.341 252.807 260.905 240.4 260.905C224.588 260.905 218.919 252.268 217.906 248.011Z" fill="url(#paint4_linear_93_3665)"/>
</mask>
<g mask="url(#mask0_93_3665)">
<path opacity="0.1" d="M269.619 213.246C237.66 252.788 219.801 220.994 210.576 216.225L216.915 189.493L254.757 184.974L269.619 213.246Z" fill="black"/>
</g>
<path d="M238.574 226.374C200.457 226.374 193.902 171.659 205.679 146.633C232.177 114.246 265.301 133.138 278.55 146.633C281.74 167.488 285.257 226.374 238.574 226.374Z" fill="url(#paint5_linear_93_3665)"/>
<path d="M279.201 184.516L271.733 179.015L272.888 174.919L281.418 180.544L279.201 184.516Z" fill="#111111"/>
<path d="M201.396 182.921L208.864 177.419L207.709 173.324L199.179 178.948L201.396 182.921Z" fill="#111111"/>
<path d="M208.23 149.921C235.253 167.528 265.212 157.257 276.813 149.921C274.37 157.625 277.831 172.434 279.866 178.875C297.45 155.977 291.701 143.612 286.629 140.291C285.784 128.879 275.409 100.345 240.58 101.697C205.751 103.05 198.992 127.752 199.979 136.91C186.791 154.832 194.637 172.354 200.998 178.875C208.23 164.835 208.065 154.986 208.23 149.921Z" fill="#30235B"/>
<g filter="url(#filter0_d_93_3665)">
<path d="M243.348 119.318C203.005 117.968 194.019 144.499 192.813 159.905C192.716 161.139 191.707 162.11 190.47 162.11C189.149 162.11 188.097 161.01 188.215 159.695C189.975 139.941 200.507 105.422 243.348 107.802C286.604 110.205 295.066 144.64 293.739 163.836C293.668 164.863 292.8 165.639 291.77 165.639C290.647 165.639 289.746 164.728 289.701 163.606C289.065 147.679 278.477 120.336 243.348 119.318Z" fill="white"/>
</g>
<g filter="url(#filter1_d_93_3665)">
<rect x="294.546" y="171.939" width="5.4757" height="21.0131" rx="2.73785" transform="rotate(10.0542 294.546 171.939)" fill="#24C28A"/>
</g>
<g filter="url(#filter2_d_93_3665)">
<rect x="282.782" y="158.316" width="16.8668" height="43.7733" rx="8.43338" transform="rotate(10.0542 282.782 158.316)" fill="white"/>
</g>
<g filter="url(#filter3_d_93_3665)">
<rect width="5.4757" height="21.0131" rx="2.73785" transform="matrix(-0.984643 0.17458 0.17458 0.984643 185.636 171.939)" fill="#24C28A"/>
</g>
<g filter="url(#filter4_d_93_3665)">
<rect width="16.8668" height="43.7733" rx="8.43338" transform="matrix(-0.984643 0.17458 0.17458 0.984643 197.247 158.316)" fill="white"/>
</g>
<mask id="mask1_93_3665" style="mask-type:alpha" maskUnits="userSpaceOnUse" x="181" y="159" width="23" height="45">
<rect width="16.8668" height="43.7733" rx="8.43338" transform="matrix(-0.984643 0.17458 0.17458 0.984643 197.247 158.316)" fill="white"/>
</mask>
<g mask="url(#mask1_93_3665)">
<rect x="189.305" y="158.316" width="21.9399" height="47.5168" transform="rotate(-10.0977 189.305 158.316)" fill="#E8E8E8"/>
</g>
<mask id="mask2_93_3665" style="mask-type:alpha" maskUnits="userSpaceOnUse" x="276" y="159" width="23" height="45">
<rect x="282.782" y="158.316" width="16.8668" height="43.7733" rx="8.43338" transform="rotate(10.0542 282.782 158.316)" fill="white"/>
</mask>
<g mask="url(#mask2_93_3665)">
<rect width="21.9399" height="47.5168" transform="matrix(-0.98451 -0.175326 -0.175326 0.98451 291.748 158.316)" fill="#E8E8E8"/>
</g>
<path opacity="0.5" d="M222.149 190.907C216.757 190.907 214.041 186.657 213.351 184.76C212.557 183.173 211.931 179.038 213.81 175.753C216.199 171.577 227.428 170.412 231.362 176.312C235.295 182.212 231.362 190.907 222.149 190.907Z" fill="#E6FCFF"/>
<path opacity="0.5" d="M257.88 190.907C263.273 190.907 265.988 186.657 266.678 184.76C267.472 183.173 268.099 179.038 266.22 175.753C263.831 171.577 252.601 170.412 248.668 176.312C244.734 182.212 248.668 190.907 257.88 190.907Z" fill="#E6FCFF"/>
<path fill-rule="evenodd" clip-rule="evenodd" d="M234.147 175.01C225.353 167.287 217.409 170.555 212.702 172.491C212.179 172.707 211.695 172.905 211.255 173.071L208.308 173.076C207.753 173.077 207.305 173.53 207.31 174.085L207.332 176.563C207.337 177.112 207.783 177.554 208.332 177.554L210.463 177.554C208.919 190.805 218.691 194.351 226.506 191.962C233.474 189.833 235.339 183.808 235.712 180.028C237.202 176.725 243.736 178.251 243.995 179.954C244.001 179.994 244.008 180.039 244.015 180.088L244.015 180.088C244.322 182.162 245.867 192.611 257.63 192.625C267.265 192.637 269.878 184.03 269.98 179.724L272.475 179.702C273.027 179.697 273.471 179.246 273.466 178.693L273.439 175.662C273.434 175.11 272.982 174.666 272.43 174.671L269.936 174.693C263.66 168.335 250.178 168.93 245.429 174.91C240.19 173.702 235.725 174.474 234.147 175.01ZM222.149 190.907C216.757 190.907 214.041 186.657 213.351 184.76C212.558 183.173 211.931 179.038 213.81 175.753C216.199 171.577 227.428 170.412 231.362 176.312C235.295 182.212 231.362 190.907 222.149 190.907ZM266.679 184.76C265.989 186.657 263.274 190.907 257.881 190.907C248.669 190.907 244.736 182.212 248.669 176.312C252.602 170.412 263.832 171.577 266.221 175.753C268.1 179.038 267.473 183.173 266.679 184.76Z" fill="#111111"/>
<path d="M163.801 408.687C163.801 408.132 164.251 407.683 164.806 407.683H319.198C320.169 407.683 320.956 408.47 320.956 409.441C320.956 412.353 318.595 414.715 315.682 414.715H169.829C166.5 414.715 163.801 412.016 163.801 408.687Z" fill="#B4B4B4"/>
<rect x="163.801" y="305.147" width="157.155" height="105.147" rx="2.94666" fill="url(#paint6_linear_93_3665)"/>
<circle cx="242.378" cy="357.721" r="11.1765" fill="white"/>
<path fill-rule="evenodd" clip-rule="evenodd" d="M130.715 169.875C130.915 166.467 131.594 163.613 132.161 162.027C133.273 164.809 133.823 167.48 134.009 169.916C136.445 170.101 139.116 170.652 141.897 171.764C140.311 172.331 137.458 173.01 134.049 173.21C133.859 176.828 132.929 179.64 132.161 181.08C131.226 178.463 130.799 175.772 130.688 173.237C128.153 173.125 125.461 172.699 122.844 171.764C124.285 170.996 127.096 170.066 130.715 169.875Z" fill="url(#paint7_linear_93_3665)"/>
<path fill-rule="evenodd" clip-rule="evenodd" d="M103.828 147.449C103.96 145.18 104.413 143.28 104.79 142.225C105.53 144.076 105.896 145.854 106.02 147.475C107.641 147.599 109.419 147.965 111.271 148.706C110.215 149.083 108.316 149.535 106.047 149.668C105.92 152.077 105.301 153.948 104.79 154.907C104.167 153.165 103.884 151.373 103.81 149.686C102.122 149.612 100.33 149.328 98.5885 148.706C99.5471 148.195 101.419 147.575 103.828 147.449Z" fill="url(#paint8_linear_93_3665)"/>
<path fill-rule="evenodd" clip-rule="evenodd" d="M60.5044 131.471C60.7037 128.062 61.3833 125.209 61.9497 123.623C63.0625 126.405 63.6125 129.075 63.7985 131.511C66.234 131.697 68.9048 132.247 71.6867 133.36C70.1006 133.926 67.2472 134.606 63.8386 134.805C63.6485 138.424 62.7178 141.236 61.9497 142.676C61.0152 140.059 60.5887 137.367 60.4774 134.832C57.9422 134.721 55.2505 134.294 52.6336 133.36C54.0738 132.592 56.8855 131.661 60.5044 131.471Z" fill="url(#paint9_linear_93_3665)"/>
<path fill-rule="evenodd" clip-rule="evenodd" d="M64.2134 209.812C64.5066 204.797 65.5065 200.599 66.3398 198.265C67.9769 202.358 68.7862 206.287 69.0598 209.871C72.643 210.144 76.5724 210.954 80.6651 212.591C78.3317 213.424 74.1337 214.424 69.1187 214.717C68.839 220.041 67.4698 224.178 66.3398 226.297C64.9648 222.447 64.3374 218.487 64.1737 214.757C60.4438 214.593 56.4836 213.966 52.6336 212.591C54.7524 211.461 58.8892 210.091 64.2134 209.812Z" fill="url(#paint10_linear_93_3665)"/>
<circle cx="94.6823" cy="180.157" r="1.8414" fill="#2F235A"/>
<circle cx="136.94" cy="127.36" r="1.8414" fill="#FE9076"/>
<circle cx="44.3205" cy="172.847" r="1.8414" fill="#FFA400"/>
<circle cx="126.847" cy="208.557" r="1.8414" fill="#23BB86"/>
<path d="M132.428 119.675C128.265 113.957 116.538 101.744 102.934 98.6345" stroke="#FE9076" stroke-width="1.60277" stroke-linecap="round"/>
<path d="M36.5511 167.911C30.3979 164.424 14.6733 158.145 0.999998 160.933" stroke="#FFA400" stroke-width="1.60277" stroke-linecap="round"/>
<path d="M120.527 213.906C117.374 216.688 109.788 224.59 104.669 233.937" stroke="#23BB86" stroke-width="1.60277" stroke-linecap="round"/>
<path fill-rule="evenodd" clip-rule="evenodd" d="M348.065 169.875C347.866 166.467 347.186 163.613 346.62 162.027C345.507 164.809 344.957 167.48 344.771 169.916C342.335 170.101 339.664 170.652 336.883 171.764C338.469 172.331 341.322 173.01 344.731 173.21C344.921 176.828 345.851 179.64 346.62 181.08C347.554 178.463 347.981 175.772 348.092 173.237C350.627 173.125 353.319 172.699 355.936 171.764C354.496 170.996 351.684 170.066 348.065 169.875Z" fill="url(#paint11_linear_93_3665)"/>
<path fill-rule="evenodd" clip-rule="evenodd" d="M374.953 147.449C374.82 145.18 374.368 143.28 373.991 142.225C373.25 144.076 372.884 145.854 372.76 147.475C371.139 147.599 369.361 147.965 367.509 148.706C368.565 149.083 370.464 149.535 372.733 149.668C372.86 152.077 373.479 153.948 373.991 154.907C374.613 153.165 374.896 151.373 374.971 149.686C376.658 149.612 378.45 149.328 380.192 148.706C379.233 148.195 377.361 147.575 374.953 147.449Z" fill="url(#paint12_linear_93_3665)"/>
<path fill-rule="evenodd" clip-rule="evenodd" d="M418.276 131.471C418.076 128.062 417.397 125.209 416.83 123.623C415.718 126.405 415.168 129.075 414.982 131.511C412.546 131.697 409.875 132.247 407.093 133.36C408.679 133.926 411.533 134.606 414.942 134.805C415.132 138.424 416.062 141.236 416.83 142.676C417.765 140.059 418.191 137.367 418.303 134.832C420.838 134.721 423.53 134.294 426.146 133.36C424.706 132.592 421.895 131.661 418.276 131.471Z" fill="url(#paint13_linear_93_3665)"/>
<path fill-rule="evenodd" clip-rule="evenodd" d="M414.567 209.812C414.273 204.797 413.274 200.599 412.44 198.265C410.803 202.358 409.994 206.287 409.72 209.871C406.137 210.144 402.208 210.954 398.115 212.591C400.448 213.424 404.646 214.424 409.661 214.717C409.941 220.041 411.31 224.178 412.44 226.297C413.815 222.447 414.443 218.487 414.606 214.757C418.336 214.593 422.296 213.966 426.146 212.591C424.028 211.461 419.891 210.091 414.567 209.812Z" fill="url(#paint14_linear_93_3665)"/>
<circle cx="1.8414" cy="1.8414" r="1.8414" transform="matrix(-1 0 0 1 385.939 178.316)" fill="#2F235A"/>
<circle cx="1.8414" cy="1.8414" r="1.8414" transform="matrix(-1 0 0 1 343.681 125.518)" fill="#FE9076"/>
<circle cx="1.8414" cy="1.8414" r="1.8414" transform="matrix(-1 0 0 1 436.301 171.005)" fill="#FFA400"/>
<circle cx="1.8414" cy="1.8414" r="1.8414" transform="matrix(-1 0 0 1 353.775 206.716)" fill="#23BB86"/>
<path d="M346.352 119.675C350.515 113.957 362.242 101.744 375.846 98.6345" stroke="#FE9076" stroke-width="1.60277" stroke-linecap="round"/>
<path d="M442.229 167.911C448.382 164.424 464.107 158.145 477.78 160.933" stroke="#FFA400" stroke-width="1.60277" stroke-linecap="round"/>
<path d="M358.253 213.906C361.406 216.688 368.992 224.59 374.111 233.937" stroke="#23BB86" stroke-width="1.60277" stroke-linecap="round"/>
<path d="M269.426 56.1736C267.338 52.9483 263.112 54.7053 263.112 58.2188C263.112 60.8572 268.906 64.9843 269.426 65.521C269.95 64.9843 275.456 60.8572 275.456 58.2188C275.456 54.732 271.518 52.9483 269.426 56.1736Z" fill="#FFBCBC"/>
<circle cx="269.284" cy="59.9987" r="13.7999" stroke="#F7F7F7" stroke-width="0.649684"/>
<path d="M219.903 36.9405C218.055 34.0859 214.315 35.641 214.315 38.7506C214.315 41.0857 219.443 44.7383 219.903 45.2133C220.367 44.7383 225.24 41.0857 225.24 38.7506C225.24 35.6646 221.755 34.0859 219.903 36.9405Z" fill="#FFBCBC"/>
<circle cx="219.777" cy="40.3258" r="12.2135" stroke="#F7F7F7" stroke-width="0.574998"/>
<path d="M252.586 15.9654C251.322 14.013 248.763 15.0766 248.763 17.2034C248.763 18.8004 252.271 21.2986 252.586 21.6234C252.903 21.2986 256.235 18.8004 256.235 17.2034C256.235 15.0927 253.852 14.013 252.586 15.9654Z" fill="#FFBCBC"/>
<circle cx="252.499" cy="18.2807" r="8.35318" stroke="#F7F7F7" stroke-width="0.393259"/>
<path d="M194.856 5.1013C193.822 3.50383 191.729 4.37408 191.729 6.11426C191.729 7.42101 194.598 9.46511 194.856 9.7309C195.115 9.46511 197.842 7.42101 197.842 6.11426C197.842 4.38727 195.892 3.50383 194.856 5.1013Z" fill="#FFBCBC"/>
<circle cx="194.785" cy="6.99577" r="6.83488" stroke="#F7F7F7" stroke-width="0.321779"/>
<path d="M189.769 79.9873C187.511 76.4995 182.941 78.3995 182.941 82.1989C182.941 85.0519 189.206 89.5148 189.769 90.0951C190.336 89.5148 196.29 85.0519 196.29 82.1989C196.29 78.4283 192.031 76.4995 189.769 79.9873Z" fill="#FFBCBC"/>
<circle cx="189.615" cy="84.1235" r="14.9226" stroke="#F7F7F7" stroke-width="0.702541"/>
<defs>
<filter id="filter0_d_93_3665" x="154.206" y="77.6848" width="173.661" height="125.955" filterUnits="userSpaceOnUse" color-interpolation-filters="sRGB">
<feFlood flood-opacity="0" result="BackgroundImageFix"/>
<feColorMatrix in="SourceAlpha" type="matrix" values="0 0 0 0 0 0 0 0 0 0 0 0 0 0 0 0 0 0 127 0" result="hardAlpha"/>
<feOffset dy="4"/>
<feGaussianBlur stdDeviation="17"/>
<feColorMatrix type="matrix" values="0 0 0 0 0.0386285 0 0 0 0 0.0648437 0 0 0 0 0.104167 0 0 0 0.13 0"/>
<feBlend mode="normal" in2="BackgroundImageFix" result="effect1_dropShadow_93_3665"/>
<feBlend mode="normal" in="SourceGraphic" in2="effect1_dropShadow_93_3665" result="shape"/>
</filter>
<filter id="filter1_d_93_3665" x="257.313" y="142.375" width="76.1891" height="88.7754" filterUnits="userSpaceOnUse" color-interpolation-filters="sRGB">
<feFlood flood-opacity="0" result="BackgroundImageFix"/>
<feColorMatrix in="SourceAlpha" type="matrix" values="0 0 0 0 0 0 0 0 0 0 0 0 0 0 0 0 0 0 127 0" result="hardAlpha"/>
<feOffset dy="4"/>
<feGaussianBlur stdDeviation="17"/>
<feColorMatrix type="matrix" values="0 0 0 0 0.0386285 0 0 0 0 0.0648437 0 0 0 0 0.104167 0 0 0 0.13 0"/>
<feBlend mode="normal" in2="BackgroundImageFix" result="effect1_dropShadow_93_3665"/>
<feBlend mode="normal" in="SourceGraphic" in2="effect1_dropShadow_93_3665" result="shape"/>
</filter>
<filter id="filter2_d_93_3665" x="242.482" y="129.658" width="89.5669" height="111.363" filterUnits="userSpaceOnUse" color-interpolation-filters="sRGB">
<feFlood flood-opacity="0" result="BackgroundImageFix"/>
<feColorMatrix in="SourceAlpha" type="matrix" values="0 0 0 0 0 0 0 0 0 0 0 0 0 0 0 0 0 0 127 0" result="hardAlpha"/>
<feOffset dy="4"/>
<feGaussianBlur stdDeviation="17"/>
<feColorMatrix type="matrix" values="0 0 0 0 0.0386285 0 0 0 0 0.0648437 0 0 0 0 0.104167 0 0 0 0.13 0"/>
<feBlend mode="normal" in2="BackgroundImageFix" result="effect1_dropShadow_93_3665"/>
<feBlend mode="normal" in="SourceGraphic" in2="effect1_dropShadow_93_3665" result="shape"/>
</filter>
<filter id="filter3_d_93_3665" x="146.68" y="142.375" width="76.1891" height="88.7754" filterUnits="userSpaceOnUse" color-interpolation-filters="sRGB">
<feFlood flood-opacity="0" result="BackgroundImageFix"/>
<feColorMatrix in="SourceAlpha" type="matrix" values="0 0 0 0 0 0 0 0 0 0 0 0 0 0 0 0 0 0 127 0" result="hardAlpha"/>
<feOffset dy="4"/>
<feGaussianBlur stdDeviation="17"/>
<feColorMatrix type="matrix" values="0 0 0 0 0.0386285 0 0 0 0 0.0648437 0 0 0 0 0.104167 0 0 0 0.13 0"/>
<feBlend mode="normal" in2="BackgroundImageFix" result="effect1_dropShadow_93_3665"/>
<feBlend mode="normal" in="SourceGraphic" in2="effect1_dropShadow_93_3665" result="shape"/>
</filter>
<filter id="filter4_d_93_3665" x="147.981" y="129.658" width="89.567" height="111.363" filterUnits="userSpaceOnUse" color-interpolation-filters="sRGB">
<feFlood flood-opacity="0" result="BackgroundImageFix"/>
<feColorMatrix in="SourceAlpha" type="matrix" values="0 0 0 0 0 0 0 0 0 0 0 0 0 0 0 0 0 0 127 0" result="hardAlpha"/>
<feOffset dy="4"/>
<feGaussianBlur stdDeviation="17"/>
<feColorMatrix type="matrix" values="0 0 0 0 0.0386285 0 0 0 0 0.0648437 0 0 0 0 0.104167 0 0 0 0.13 0"/>
<feBlend mode="normal" in2="BackgroundImageFix" result="effect1_dropShadow_93_3665"/>
<feBlend mode="normal" in="SourceGraphic" in2="effect1_dropShadow_93_3665" result="shape"/>
</filter>
<linearGradient id="paint0_linear_93_3665" x1="390.781" y1="158.321" x2="393.428" y2="334.189" gradientUnits="userSpaceOnUse">
<stop stop-color="#FFEFE0"/>
<stop offset="1" stop-color="#FFBE99"/>
</linearGradient>
<linearGradient id="paint1_linear_93_3665" x1="242.275" y1="200.208" x2="229.875" y2="448.546" gradientUnits="userSpaceOnUse">
<stop stop-color="#FF9F81"/>
<stop offset="1" stop-color="#F53838"/>
</linearGradient>
<linearGradient id="paint2_linear_93_3665" x1="227.21" y1="287.483" x2="108.538" y2="344.358" gradientUnits="userSpaceOnUse">
<stop offset="0.0677966" stop-color="#FFEFE0"/>
<stop offset="1" stop-color="#FFBE99"/>
</linearGradient>
<linearGradient id="paint3_linear_93_3665" x1="238.204" y1="172.975" x2="240.284" y2="239.361" gradientUnits="userSpaceOnUse">
<stop stop-color="#FFEFE0"/>
<stop offset="1" stop-color="#FFBE99"/>
</linearGradient>
<linearGradient id="paint4_linear_93_3665" x1="238.204" y1="172.975" x2="235.29" y2="248.606" gradientUnits="userSpaceOnUse">
<stop stop-color="#FFEFE0"/>
<stop offset="1" stop-color="#FFBE99"/>
</linearGradient>
<linearGradient id="paint5_linear_93_3665" x1="241.661" y1="137.583" x2="241.661" y2="217.302" gradientUnits="userSpaceOnUse">
<stop stop-color="#FFEFE0"/>
<stop offset="1" stop-color="#FFBE99"/>
</linearGradient>
<linearGradient id="paint6_linear_93_3665" x1="274.829" y1="226.235" x2="216.724" y2="434.729" gradientUnits="userSpaceOnUse">
<stop offset="0.0171777" stop-color="white"/>
<stop offset="1" stop-color="#D7D7D7"/>
</linearGradient>
<linearGradient id="paint7_linear_93_3665" x1="132.371" y1="164.055" x2="132.371" y2="181.945" gradientUnits="userSpaceOnUse">
<stop stop-color="#FFE89E"/>
<stop offset="1" stop-color="#FFBF1A"/>
</linearGradient>
<linearGradient id="paint8_linear_93_3665" x1="104.93" y1="143.575" x2="104.93" y2="155.482" gradientUnits="userSpaceOnUse">
<stop stop-color="#FFE89E"/>
<stop offset="1" stop-color="#FFBF1A"/>
</linearGradient>
<linearGradient id="paint9_linear_93_3665" x1="62.1601" y1="125.651" x2="62.1601" y2="143.54" gradientUnits="userSpaceOnUse">
<stop stop-color="#FFE89E"/>
<stop offset="1" stop-color="#FFBF1A"/>
</linearGradient>
<linearGradient id="paint10_linear_93_3665" x1="66.6494" y1="201.249" x2="66.6494" y2="227.569" gradientUnits="userSpaceOnUse">
<stop stop-color="#FFE89E"/>
<stop offset="1" stop-color="#FFBF1A"/>
</linearGradient>
<linearGradient id="paint11_linear_93_3665" x1="346.409" y1="164.055" x2="346.409" y2="181.945" gradientUnits="userSpaceOnUse">
<stop stop-color="#FFE89E"/>
<stop offset="1" stop-color="#FFBF1A"/>
</linearGradient>
<linearGradient id="paint12_linear_93_3665" x1="373.85" y1="143.575" x2="373.85" y2="155.482" gradientUnits="userSpaceOnUse">
<stop stop-color="#FFE89E"/>
<stop offset="1" stop-color="#FFBF1A"/>
</linearGradient>
<linearGradient id="paint13_linear_93_3665" x1="416.62" y1="125.651" x2="416.62" y2="143.54" gradientUnits="userSpaceOnUse">
<stop stop-color="#FFE89E"/>
<stop offset="1" stop-color="#FFBF1A"/>
</linearGradient>
<linearGradient id="paint14_linear_93_3665" x1="412.131" y1="201.249" x2="412.131" y2="227.569" gradientUnits="userSpaceOnUse">
<stop stop-color="#FFE89E"/>
<stop offset="1" stop-color="#FFBF1A"/>
</linearGradient>
</defs>
</svg>
